<?xml version="1.0" encoding="utf-8"?>
<!-- Generator: Adobe Illustrator 16.0.0, SVG Export Plug-In . SVG Version: 6.00 Build 0)  -->
<!DOCTYPE svg PUBLIC "-//W3C//DTD SVG 1.1//EN" "http://www.w3.org/Graphics/SVG/1.1/DTD/svg11.dtd">
<svg version="1.1" id="Layer_1" xmlns="http://www.w3.org/2000/svg" xmlns:xlink="http://www.w3.org/1999/xlink" x="0px" y="0px"
	 width="28px" height="25.25px" viewBox="0 0 28 25.25" enable-background="new 0 0 28 25.25" xml:space="preserve">
<g>
	<path fill="#FFFFFF" d="M1.229,1.219c0,0.133,0,0.225,0,0.319c0,1.203,0.037,2.408-0.013,3.609c-0.033,0.79,0.304,1.32,0.908,1.743
		c0.69,0.484,1.46,0.795,2.256,1.051C6.311,8.56,8.3,8.86,10.314,9.03c3.51,0.296,7.004,0.199,10.478-0.411
		c1.409-0.249,2.804-0.574,4.097-1.209c0.479-0.235,0.922-0.557,1.342-0.89c0.347-0.275,0.484-0.676,0.479-1.135
		c-0.013-1.298-0.004-2.597-0.004-3.895c0-0.081,0-0.16,0-0.205c-0.75,0.331-1.465,0.701-2.218,0.966
		c-2.697,0.951-5.511,1.25-8.342,1.42C13.66,3.822,11.182,3.71,8.714,3.397C6.123,3.068,3.569,2.602,1.229,1.219z M26.704,8.48
		c-0.94,0.601-1.911,0.989-2.92,1.292c-2.438,0.729-4.947,1.021-7.474,1.172c-3.411,0.201-6.798-0.016-10.152-0.675
		c-1.696-0.333-3.35-0.803-4.837-1.731c-0.02-0.011-0.052-0.001-0.092-0.001c0,1.312,0.032,2.62-0.012,3.925
		c-0.025,0.753,0.267,1.305,0.872,1.668c0.621,0.372,1.271,0.724,1.95,0.965c2.467,0.878,5.045,1.172,7.642,1.314
		c2.704,0.149,5.399,0.05,8.08-0.339c1.614-0.235,3.215-0.545,4.718-1.199c0.583-0.254,1.127-0.613,1.653-0.976
		c0.332-0.228,0.564-0.582,0.567-1.008C26.713,11.439,26.704,9.99,26.704,8.48z M26.705,15.763c-0.94,0.594-1.901,0.987-2.904,1.283
		c-2.996,0.885-6.076,1.169-9.181,1.239c-2.649,0.061-5.284-0.152-7.894-0.625c-1.898-0.344-3.756-0.82-5.425-1.847
		c-0.012-0.008-0.034,0.003-0.062,0.005c-0.003,0.036-0.01,0.07-0.01,0.106c-0.001,1.395-0.02,2.789,0.015,4.181
		c0.007,0.286,0.169,0.602,0.344,0.841c0.179,0.245,0.433,0.473,0.704,0.605c0.736,0.364,1.476,0.741,2.253,0.992
		c2.13,0.688,4.339,0.962,6.566,1.106c3.353,0.22,6.687,0.091,9.994-0.53c1.342-0.251,2.669-0.577,3.894-1.202
		c0.449-0.23,0.865-0.541,1.258-0.864c0.325-0.269,0.466-0.652,0.451-1.091c-0.016-0.502-0.003-1.004-0.003-1.508
		C26.706,17.577,26.705,16.699,26.705,15.763z"/>
	<path fill-rule="evenodd" clip-rule="evenodd" d="M1.229,1.219c2.34,1.382,4.894,1.849,7.486,2.178
		c2.468,0.313,4.945,0.425,7.431,0.274c2.831-0.17,5.645-0.469,8.342-1.42c0.753-0.265,1.468-0.636,2.218-0.966
		c0,0.044,0,0.124,0,0.205c0,1.298-0.009,2.597,0.004,3.895c0.006,0.459-0.132,0.86-0.479,1.135c-0.42,0.333-0.863,0.654-1.342,0.89
		c-1.293,0.635-2.688,0.96-4.097,1.209c-3.474,0.61-6.968,0.707-10.478,0.411C8.3,8.86,6.311,8.56,4.38,7.942
		C3.584,7.686,2.813,7.375,2.124,6.891C1.519,6.467,1.183,5.938,1.215,5.147c0.05-1.201,0.013-2.406,0.013-3.609
		C1.229,1.444,1.229,1.352,1.229,1.219z"/>
	<path fill-rule="evenodd" clip-rule="evenodd" d="M26.704,8.48c0,1.51,0.009,2.959-0.006,4.407
		c-0.003,0.426-0.235,0.78-0.567,1.008c-0.526,0.362-1.07,0.722-1.653,0.976c-1.503,0.654-3.104,0.964-4.718,1.199
		c-2.681,0.389-5.376,0.488-8.08,0.339c-2.597-0.143-5.175-0.437-7.642-1.314c-0.679-0.241-1.329-0.593-1.95-0.965
		c-0.604-0.363-0.896-0.915-0.872-1.668c0.043-1.305,0.012-2.613,0.012-3.925c0.04,0,0.073-0.01,0.092,0.001
		c1.488,0.929,3.142,1.398,4.837,1.731c3.354,0.659,6.742,0.876,10.152,0.675c2.526-0.15,5.035-0.442,7.474-1.172
		C24.793,9.469,25.764,9.081,26.704,8.48z"/>
	<path fill-rule="evenodd" clip-rule="evenodd" d="M26.705,15.763c0,0.936,0.001,1.813,0,2.692c0,0.504-0.013,1.006,0.003,1.508
		c0.015,0.438-0.126,0.822-0.451,1.091c-0.393,0.323-0.809,0.634-1.258,0.864c-1.225,0.625-2.552,0.951-3.894,1.202
		c-3.308,0.621-6.642,0.75-9.994,0.53c-2.227-0.145-4.436-0.418-6.566-1.106c-0.777-0.251-1.517-0.628-2.253-0.992
		c-0.271-0.133-0.525-0.36-0.704-0.605c-0.175-0.239-0.337-0.555-0.344-0.841c-0.035-1.392-0.016-2.786-0.015-4.181
		c0-0.036,0.007-0.07,0.01-0.106c0.027-0.002,0.05-0.013,0.062-0.005c1.669,1.026,3.527,1.503,5.425,1.847
		c2.609,0.473,5.244,0.686,7.894,0.625c3.104-0.07,6.185-0.354,9.181-1.239C24.804,16.75,25.765,16.357,26.705,15.763z"/>
</g>
</svg>
